<svg xmlns="http://www.w3.org/2000/svg" viewBox="0 0 200 260" width="100%" height="100%">
    <!-- Shadow -->
    <ellipse cx="100" cy="245" rx="55" ry="10" fill="#000" opacity="0.15" />
    
    <!-- Skirt / Dress -->
    <path d="M 75 160 L 125 160 L 135 210 L 65 210 Z" fill="#E64980" />
    <rect x="80" y="210" width="14" height="25" fill="#FFD8A8" />
    <rect x="106" y="210" width="14" height="25" fill="#FFD8A8" />
    <!-- Cute Shoes -->
    <ellipse cx="87" cy="235" rx="12" ry="7" fill="#9C36B5" />
    <ellipse cx="113" cy="235" rx="12" ry="7" fill="#9C36B5" />

    <!-- Cardigan Top -->
    <rect x="66" y="100" width="68" height="65" rx="12" fill="#7048E8" />
    <!-- Inner Blouse / Polka dots -->
    <path d="M 85 100 L 100 120 L 115 100 Z" fill="#FFF" />
    <circle cx="100" cy="130" r="3" fill="#FFD43B" />
    <circle cx="100" cy="145" r="3" fill="#FFD43B" />

    <!-- Left Arm Holding Pointer -->
    <path d="M 68 105 Q 40 120 48 145" fill="none" stroke="#7048E8" stroke-width="16" stroke-linecap="round" />
    <circle cx="48" cy="145" r="8" fill="#FFD8A8" />
    <!-- Star Pointer Stick -->
    <line x1="48" y1="145" x2="25" y2="90" stroke="#FAB005" stroke-width="4" stroke-linecap="round" />
    <polygon points="25,82 28,88 34,88 29,92 31,98 25,94 19,98 21,92 16,88 22,88" fill="#FFD43B" />

    <!-- Right Arm Holding Colorful Book -->
    <path d="M 130 105 Q 155 125 142 148" fill="none" stroke="#7048E8" stroke-width="16" stroke-linecap="round" />
    <circle cx="142" cy="148" r="8" fill="#FFD8A8" />
    <!-- ABC Book -->
    <rect x="135" y="130" width="30" height="24" rx="4" fill="#40C057" stroke="#2F9E44" stroke-width="2" transform="rotate(15 135 130)" />
    <text x="146" y="148" font-family="'Fredoka', sans-serif" font-weight="bold" font-size="11" fill="#FFF">ABC</text>

    <!-- Head & Hair -->
    <circle cx="100" cy="62" r="32" fill="#FFD8A8" />
    <!-- Hairstyle with hair bun -->
    <path d="M 68 62 Q 65 30 100 28 Q 135 30 132 62 Q 115 42 100 44 Q 85 42 68 62 Z" fill="#5C3B1E" />
    <circle cx="100" cy="22" r="14" fill="#5C3B1E" />
    <circle cx="100" cy="22" r="6" fill="#E64980" /> <!-- Hairband -->

    <!-- Glasses -->
    <circle cx="86" cy="62" r="9" fill="none" stroke="#E64980" stroke-width="3" />
    <circle cx="114" cy="62" r="9" fill="none" stroke="#E64980" stroke-width="3" />
    <line x1="95" y1="62" x2="105" y2="62" stroke="#E64980" stroke-width="3" />
    <!-- Eyes -->
    <circle cx="86" cy="62" r="4" fill="#212529" />
    <circle cx="87" cy="60" r="1.5" fill="#FFF" />
    <circle cx="114" cy="62" r="4" fill="#212529" />
    <circle cx="115" cy="60" r="1.5" fill="#FFF" />
    <!-- Cheeks & Smile -->
    <ellipse cx="78" cy="72" rx="5" ry="3" fill="#FFA8A8" />
    <ellipse cx="122" cy="72" rx="5" ry="3" fill="#FFA8A8" />
    <path d="M 90 75 Q 100 85 110 75" fill="none" stroke="#212529" stroke-width="3" stroke-linecap="round" />
  </svg>